<?xml version="1.0" encoding="UTF-8" standalone="no"?>
<!-- Created with Inkscape (http://www.inkscape.org/) -->

<svg
   xmlns:dc="http://purl.org/dc/elements/1.1/"
   xmlns:cc="http://creativecommons.org/ns#"
   xmlns:rdf="http://www.w3.org/1999/02/22-rdf-syntax-ns#"
   xmlns:svg="http://www.w3.org/2000/svg"
   xmlns="http://www.w3.org/2000/svg"
   xmlns:sodipodi="http://sodipodi.sourceforge.net/DTD/sodipodi-0.dtd"
   xmlns:inkscape="http://www.inkscape.org/namespaces/inkscape"
   width="199.67885"
   height="228.22447"
   id="svg2"
   version="1.1"
   inkscape:version="0.48.2 r9819"
   sodipodi:docname="xhunt-logo-name.svg">
  <defs
     id="defs4" />
  <sodipodi:namedview
     id="base"
     pagecolor="#ffffff"
     bordercolor="#666666"
     borderopacity="1.0"
     inkscape:pageopacity="0.0"
     inkscape:pageshadow="2"
     inkscape:zoom="1"
     inkscape:cx="86.019277"
     inkscape:cy="107.84924"
     inkscape:document-units="px"
     inkscape:current-layer="layer1"
     showgrid="false"
     fit-margin-top="10"
     fit-margin-left="10"
     fit-margin-right="10"
     fit-margin-bottom="10"
     inkscape:window-width="1920"
     inkscape:window-height="1036"
     inkscape:window-x="0"
     inkscape:window-y="0"
     inkscape:window-maximized="1" />
  <metadata
     id="metadata7">
    <rdf:RDF>
      <cc:Work
         rdf:about="">
        <dc:format>image/svg+xml</dc:format>
        <dc:type
           rdf:resource="http://purl.org/dc/dcmitype/StillImage" />
        <dc:title></dc:title>
      </cc:Work>
    </rdf:RDF>
  </metadata>
  <g
     inkscape:label="Ebene 1"
     inkscape:groupmode="layer"
     id="layer1"
     transform="translate(748.87122,-489.33811)">
    <g
       id="g3145"
       transform="matrix(1.0000165,0,0,1.0000165,-759.03112,505.08095)">
      <path
         inkscape:export-ydpi="131.61"
         inkscape:export-xdpi="131.61"
         inkscape:export-filename="/Users/mcnesium/Downloads/mobilis.png"
         transform="matrix(1.7837243,0,0,1.7837243,33.477639,3.5134116)"
         d="m 82.497913,47.450359 c 0,21.869924 -17.729075,39.598999 -39.598999,39.598999 -21.869923,0 -39.5989987,-17.729075 -39.5989987,-39.598999 0,-21.869923 17.7290757,-39.5989987 39.5989987,-39.5989987 21.869924,0 39.598999,17.7290757 39.598999,39.5989987 z"
         sodipodi:ry="39.598999"
         sodipodi:rx="39.598999"
         sodipodi:cy="47.450359"
         sodipodi:cx="42.898914"
         id="path3761"
         style="fill:#0f3d7f;fill-opacity:1;stroke:none"
         sodipodi:type="arc" />
      <rect
         inkscape:export-ydpi="131.61"
         inkscape:export-xdpi="131.61"
         inkscape:export-filename="/Users/mcnesium/Downloads/mobilis.png"
         y="114.40231"
         x="87.706078"
         height="48.438339"
         width="44.582794"
         id="rect3771"
         style="fill:#ffffff;fill-opacity:1;stroke:none" />
      <path
         sodipodi:nodetypes="cccccccccccc"
         inkscape:export-ydpi="131.61"
         inkscape:export-xdpi="131.61"
         inkscape:export-filename="/Users/mcnesium/Downloads/mobilis.png"
         inkscape:connector-curvature="0"
         id="path3072"
         d="M 187.51654,79.666676 C 171.1016,86.503477 154.34949,92.079265 137.19152,96.684531 138.95753,122.8511 127.38482,147.93657 110.4417,167.25412 93.859337,148.15704 82.834962,123.16659 84.368458,97.569271 64.923332,92.533789 46.255397,85.225717 27.590107,77.897247 27.414438,120.59044 61.4622,158.85664 95.284506,181.74546 c -6.421216,8.55649 -31.950803,11.6234 -31.819143,20.73283 19.025776,-1.5e-4 34.374676,-5.93248 46.971037,-11.85623 13.39684,6.54922 28.28125,11.69011 46.3592,11.71834 0.063,-7.8219 -23.37152,-11.28202 -31.19578,-20.59494 33.60076,-21.36665 63.35725,-55.8594 66.39241,-97.082729 -0.72736,-4.740402 3.31471,-9.423921 -4.47569,-4.996055 z"
         style="fill:#0f3d7f;fill-opacity:1" />
      <path
         inkscape:export-ydpi="131.61"
         inkscape:export-xdpi="131.61"
         inkscape:export-filename="/Users/mcnesium/Downloads/mobilis.png"
         sodipodi:type="arc"
         style="fill:#ffffff;fill-opacity:1;stroke:none"
         id="path3767"
         sodipodi:cx="42.898914"
         sodipodi:cy="47.450359"
         sodipodi:rx="39.598999"
         sodipodi:ry="39.598999"
         d="m 82.497913,47.450359 c 0,21.869924 -17.729075,39.598999 -39.598999,39.598999 -21.869923,0 -39.5989987,-17.729075 -39.5989987,-39.598999 0,-21.869923 17.7290757,-39.5989987 39.5989987,-39.5989987 21.869924,0 39.598999,17.7290757 39.598999,39.5989987 z"
         transform="matrix(1.2513438,0,0,1.2513438,56.31618,28.775051)" />
      <path
         inkscape:export-ydpi="131.61"
         inkscape:export-xdpi="131.61"
         inkscape:export-filename="/Users/mcnesium/Downloads/mobilis.png"
         sodipodi:type="arc"
         style="fill:#0f3d7f;fill-opacity:1;stroke:none"
         id="path3769"
         sodipodi:cx="42.898914"
         sodipodi:cy="47.450359"
         sodipodi:rx="39.598999"
         sodipodi:ry="39.598999"
         d="m 82.497913,47.450359 c 0,21.869924 -17.729075,39.598999 -39.598999,39.598999 -21.869923,0 -39.5989987,-17.729075 -39.5989987,-39.598999 0,-21.869923 17.7290757,-39.5989987 39.5989987,-39.5989987 21.869924,0 39.598999,17.7290757 39.598999,39.5989987 z"
         transform="matrix(0.56456585,0,0,0.56456585,85.778209,61.36291)" />
    </g>
    <g
       id="g3922"
       transform="translate(0.66707776,15.031084)">
      <path
         inkscape:connector-curvature="0"
         id="path3152"
         d="m -701.75211,521.46453 -6.37715,18.3343 12.22287,11.16001 38.52861,5.04858 c 0,0 25.77431,-2.65715 30.82288,-2.92286 5.04858,-0.26572 36.13718,-14.88002 36.13718,-14.88002 l -4.51714,-29.2286 z"
         style="fill:#ffffff;stroke:none" />
      <path
         sodipodi:nodetypes="ccccccccccccccccccccc"
         inkscape:connector-curvature="0"
         id="path3066"
         d="m -702.49337,570.23616 c -16.61168,-2.51738 -34.04941,-10.46347 -36.90168,-23.01237 -1.59457,-10.79169 10.37295,-20.06269 23.44443,-24.49494 6.90657,-3.00403 18.4918,-2.395 19.03976,-5.85734 4.53308,-10.39644 5.95334,-17.7044 15.55603,-26.5966 7.82046,-5.36283 19.98921,-6.57855 30.15421,-5.71505 11.71262,2.06688 24.14884,-1.16463 36.04856,0.27848 8.41117,0.97966 17.14955,2.8902 18.51548,9.24217 1.97167,6.80273 1.96467,13.80357 3.18368,20.67881 0.98861,5.80057 -2.62436,11.458 -9.94633,14.32313 -10.11203,6.08221 -23.59016,7.74135 -36.15775,9.75077 -14.10791,1.04779 -28.82559,1.16284 -42.47916,-1.87944 -19.3858,-6.06457 -17.91852,-15.01345 -17.91852,-15.01345 0,0 -4.71241,10.62852 -3.76341,14.46332 1.70213,6.83515 11.94434,10.74301 19.96574,12.66626 13.54402,3.25428 28.22697,2.78639 41.91929,0.27718 17.68038,-2.48671 35.63774,-6.37316 49.75801,-14.54022 10.37937,3.18508 21.63834,4.55447 32.21558,7.34879 -5.73831,5.02486 -15.4141,6.35057 -23.21491,9.24493 -16.8194,4.78176 -33.76075,9.38332 -50.31235,14.59403 -22.00085,5.42833 -46.10429,7.79345 -69.10666,4.24154 z"
         style="fill:#000000" />
    </g>
  </g>
</svg>
